<mxfile host="app.diagrams.net" agent="Mozilla/5.0 (Windows NT 10.0; Win64; x64) AppleWebKit/537.36 (KHTML, like Gecko) Chrome/133.0.0.0 Safari/537.36" version="26.0.16">
  <diagram name="Page-1" id="QtNZdzJrr4ZyR9jmVmQu">
    <mxGraphModel dx="842" dy="523" grid="1" gridSize="10" guides="1" tooltips="1" connect="1" arrows="1" fold="1" page="1" pageScale="1" pageWidth="850" pageHeight="1100" math="0" shadow="0">
      <root>
        <mxCell id="0" />
        <mxCell id="1" parent="0" />
        <mxCell id="wdwXknuP5KpK9aoqF5YQ-2" value="Students" style="shape=umlActor;verticalLabelPosition=bottom;verticalAlign=top;html=1;outlineConnect=0;" vertex="1" parent="1">
          <mxGeometry x="40" y="60" width="30" height="60" as="geometry" />
        </mxCell>
        <mxCell id="wdwXknuP5KpK9aoqF5YQ-72" style="edgeStyle=orthogonalEdgeStyle;rounded=0;orthogonalLoop=1;jettySize=auto;html=1;entryX=0;entryY=0.5;entryDx=0;entryDy=0;" edge="1" parent="1" source="wdwXknuP5KpK9aoqF5YQ-4" target="wdwXknuP5KpK9aoqF5YQ-70">
          <mxGeometry relative="1" as="geometry" />
        </mxCell>
        <mxCell id="wdwXknuP5KpK9aoqF5YQ-101" style="edgeStyle=orthogonalEdgeStyle;rounded=0;orthogonalLoop=1;jettySize=auto;html=1;entryX=0;entryY=0.5;entryDx=0;entryDy=0;" edge="1" parent="1" source="wdwXknuP5KpK9aoqF5YQ-4" target="wdwXknuP5KpK9aoqF5YQ-100">
          <mxGeometry relative="1" as="geometry" />
        </mxCell>
        <mxCell id="wdwXknuP5KpK9aoqF5YQ-4" value="Admin&lt;div&gt;&lt;br&gt;&lt;/div&gt;" style="shape=umlActor;verticalLabelPosition=bottom;verticalAlign=top;html=1;outlineConnect=0;" vertex="1" parent="1">
          <mxGeometry x="40" y="615" width="30" height="60" as="geometry" />
        </mxCell>
        <mxCell id="wdwXknuP5KpK9aoqF5YQ-62" style="edgeStyle=orthogonalEdgeStyle;rounded=0;orthogonalLoop=1;jettySize=auto;html=1;entryX=0;entryY=0.5;entryDx=0;entryDy=0;" edge="1" parent="1" source="wdwXknuP5KpK9aoqF5YQ-20" target="wdwXknuP5KpK9aoqF5YQ-58">
          <mxGeometry relative="1" as="geometry" />
        </mxCell>
        <mxCell id="wdwXknuP5KpK9aoqF5YQ-63" style="edgeStyle=orthogonalEdgeStyle;rounded=0;orthogonalLoop=1;jettySize=auto;html=1;" edge="1" parent="1" source="wdwXknuP5KpK9aoqF5YQ-20" target="wdwXknuP5KpK9aoqF5YQ-60">
          <mxGeometry relative="1" as="geometry" />
        </mxCell>
        <mxCell id="wdwXknuP5KpK9aoqF5YQ-64" style="edgeStyle=orthogonalEdgeStyle;rounded=0;orthogonalLoop=1;jettySize=auto;html=1;entryX=0;entryY=0.5;entryDx=0;entryDy=0;" edge="1" parent="1" source="wdwXknuP5KpK9aoqF5YQ-20" target="wdwXknuP5KpK9aoqF5YQ-61">
          <mxGeometry relative="1" as="geometry" />
        </mxCell>
        <mxCell id="wdwXknuP5KpK9aoqF5YQ-66" style="edgeStyle=orthogonalEdgeStyle;rounded=0;orthogonalLoop=1;jettySize=auto;html=1;entryX=0;entryY=0.5;entryDx=0;entryDy=0;" edge="1" parent="1" source="wdwXknuP5KpK9aoqF5YQ-20" target="wdwXknuP5KpK9aoqF5YQ-65">
          <mxGeometry relative="1" as="geometry" />
        </mxCell>
        <mxCell id="wdwXknuP5KpK9aoqF5YQ-20" value="&lt;font style=&quot;font-size: 13px;&quot;&gt;Searc&lt;span style=&quot;color: rgba(0, 0, 0, 0); font-family: monospace; font-size: 0px; text-align: start; text-wrap-mode: nowrap;&quot;&gt;%3CmxGraphModel%3E%3Croot%3E%3CmxCell%20id%3D%220%22%2F%3E%3CmxCell%20id%3D%221%22%20parent%3D%220%22%2F%3E%3CmxCell%20id%3D%222%22%20value%3D%22%22%20style%3D%22ellipse%3BwhiteSpace%3Dwrap%3Bhtml%3D1%3BfontFamily%3DTimes%20New%20Roman%3BfontSize%3D14%3B%22%20vertex%3D%221%22%20parent%3D%221%22%3E%3CmxGeometry%20x%3D%22260%22%20y%3D%22200%22%20width%3D%2280%22%20height%3D%2250%22%20as%3D%22geometry%22%2F%3E%3C%2FmxCell%3E%3C%2Froot%3E%3C%2FmxGraphModel%3E&lt;/span&gt;h&lt;/font&gt;" style="ellipse;whiteSpace=wrap;html=1;fontFamily=Times New Roman;fontSize=14;" vertex="1" parent="1">
          <mxGeometry x="150" y="60" width="80" height="50" as="geometry" />
        </mxCell>
        <mxCell id="wdwXknuP5KpK9aoqF5YQ-48" style="edgeStyle=orthogonalEdgeStyle;rounded=0;orthogonalLoop=1;jettySize=auto;html=1;entryX=-0.006;entryY=0.602;entryDx=0;entryDy=0;entryPerimeter=0;" edge="1" parent="1" source="wdwXknuP5KpK9aoqF5YQ-2" target="wdwXknuP5KpK9aoqF5YQ-20">
          <mxGeometry relative="1" as="geometry" />
        </mxCell>
        <mxCell id="wdwXknuP5KpK9aoqF5YQ-58" value="View Map" style="ellipse;whiteSpace=wrap;html=1;fontFamily=Times New Roman;fontSize=14;" vertex="1" parent="1">
          <mxGeometry x="320" width="80" height="50" as="geometry" />
        </mxCell>
        <mxCell id="wdwXknuP5KpK9aoqF5YQ-60" value="Search location" style="ellipse;whiteSpace=wrap;html=1;fontFamily=Times New Roman;fontSize=14;" vertex="1" parent="1">
          <mxGeometry x="320" y="60" width="80" height="50" as="geometry" />
        </mxCell>
        <mxCell id="wdwXknuP5KpK9aoqF5YQ-61" value="Navigate" style="ellipse;whiteSpace=wrap;html=1;fontFamily=Times New Roman;fontSize=14;" vertex="1" parent="1">
          <mxGeometry x="320" y="180" width="80" height="50" as="geometry" />
        </mxCell>
        <mxCell id="wdwXknuP5KpK9aoqF5YQ-65" value="View information" style="ellipse;whiteSpace=wrap;html=1;fontFamily=Times New Roman;fontSize=14;" vertex="1" parent="1">
          <mxGeometry x="320" y="120" width="80" height="50" as="geometry" />
        </mxCell>
        <mxCell id="wdwXknuP5KpK9aoqF5YQ-92" style="edgeStyle=orthogonalEdgeStyle;rounded=0;orthogonalLoop=1;jettySize=auto;html=1;entryX=0;entryY=0.5;entryDx=0;entryDy=0;" edge="1" parent="1" source="wdwXknuP5KpK9aoqF5YQ-67" target="wdwXknuP5KpK9aoqF5YQ-90">
          <mxGeometry relative="1" as="geometry" />
        </mxCell>
        <mxCell id="wdwXknuP5KpK9aoqF5YQ-93" style="edgeStyle=orthogonalEdgeStyle;rounded=0;orthogonalLoop=1;jettySize=auto;html=1;entryX=0;entryY=0.5;entryDx=0;entryDy=0;" edge="1" parent="1" source="wdwXknuP5KpK9aoqF5YQ-67" target="wdwXknuP5KpK9aoqF5YQ-91">
          <mxGeometry relative="1" as="geometry" />
        </mxCell>
        <mxCell id="wdwXknuP5KpK9aoqF5YQ-67" value="Check" style="ellipse;whiteSpace=wrap;html=1;fontFamily=Times New Roman;fontSize=14;" vertex="1" parent="1">
          <mxGeometry x="150" y="440" width="80" height="50" as="geometry" />
        </mxCell>
        <mxCell id="wdwXknuP5KpK9aoqF5YQ-69" style="edgeStyle=orthogonalEdgeStyle;rounded=0;orthogonalLoop=1;jettySize=auto;html=1;entryX=0;entryY=0.5;entryDx=0;entryDy=0;" edge="1" parent="1" source="wdwXknuP5KpK9aoqF5YQ-68" target="wdwXknuP5KpK9aoqF5YQ-67">
          <mxGeometry relative="1" as="geometry" />
        </mxCell>
        <mxCell id="wdwXknuP5KpK9aoqF5YQ-68" value="Lecturer" style="shape=umlActor;verticalLabelPosition=bottom;verticalAlign=top;html=1;outlineConnect=0;" vertex="1" parent="1">
          <mxGeometry x="40" y="435" width="30" height="60" as="geometry" />
        </mxCell>
        <mxCell id="wdwXknuP5KpK9aoqF5YQ-85" style="edgeStyle=orthogonalEdgeStyle;rounded=0;orthogonalLoop=1;jettySize=auto;html=1;entryX=0;entryY=0.5;entryDx=0;entryDy=0;" edge="1" parent="1" source="wdwXknuP5KpK9aoqF5YQ-70" target="wdwXknuP5KpK9aoqF5YQ-74">
          <mxGeometry relative="1" as="geometry" />
        </mxCell>
        <mxCell id="wdwXknuP5KpK9aoqF5YQ-86" style="edgeStyle=orthogonalEdgeStyle;rounded=0;orthogonalLoop=1;jettySize=auto;html=1;entryX=0;entryY=0.5;entryDx=0;entryDy=0;" edge="1" parent="1" source="wdwXknuP5KpK9aoqF5YQ-70" target="wdwXknuP5KpK9aoqF5YQ-75">
          <mxGeometry relative="1" as="geometry" />
        </mxCell>
        <mxCell id="wdwXknuP5KpK9aoqF5YQ-70" value="Manage" style="ellipse;whiteSpace=wrap;html=1;fontFamily=Times New Roman;fontSize=14;" vertex="1" parent="1">
          <mxGeometry x="150" y="585" width="80" height="50" as="geometry" />
        </mxCell>
        <mxCell id="wdwXknuP5KpK9aoqF5YQ-83" style="edgeStyle=orthogonalEdgeStyle;rounded=0;orthogonalLoop=1;jettySize=auto;html=1;entryX=0;entryY=0.5;entryDx=0;entryDy=0;" edge="1" parent="1" source="wdwXknuP5KpK9aoqF5YQ-71" target="wdwXknuP5KpK9aoqF5YQ-76">
          <mxGeometry relative="1" as="geometry" />
        </mxCell>
        <mxCell id="wdwXknuP5KpK9aoqF5YQ-71" value="Announce" style="ellipse;whiteSpace=wrap;html=1;fontFamily=Times New Roman;fontSize=14;" vertex="1" parent="1">
          <mxGeometry x="150" y="735" width="80" height="50" as="geometry" />
        </mxCell>
        <mxCell id="wdwXknuP5KpK9aoqF5YQ-73" style="edgeStyle=orthogonalEdgeStyle;rounded=0;orthogonalLoop=1;jettySize=auto;html=1;entryX=0;entryY=0.6;entryDx=0;entryDy=0;entryPerimeter=0;" edge="1" parent="1" source="wdwXknuP5KpK9aoqF5YQ-4" target="wdwXknuP5KpK9aoqF5YQ-71">
          <mxGeometry relative="1" as="geometry" />
        </mxCell>
        <mxCell id="wdwXknuP5KpK9aoqF5YQ-74" value="&lt;div style=&quot;line-height: 100%;&quot;&gt;Change building status&lt;/div&gt;" style="ellipse;whiteSpace=wrap;html=1;fontFamily=Times New Roman;fontSize=14;" vertex="1" parent="1">
          <mxGeometry x="320" y="535" width="80" height="50" as="geometry" />
        </mxCell>
        <mxCell id="wdwXknuP5KpK9aoqF5YQ-75" value="&lt;div style=&quot;line-height: 100%;&quot;&gt;&lt;font style=&quot;font-size: 13px;&quot;&gt;Update campus,route&lt;/font&gt;&lt;/div&gt;" style="ellipse;whiteSpace=wrap;html=1;fontFamily=Times New Roman;fontSize=14;spacing=0;" vertex="1" parent="1">
          <mxGeometry x="320" y="635" width="80" height="50" as="geometry" />
        </mxCell>
        <mxCell id="wdwXknuP5KpK9aoqF5YQ-76" value="Emergency" style="ellipse;whiteSpace=wrap;html=1;fontFamily=Times New Roman;fontSize=14;" vertex="1" parent="1">
          <mxGeometry x="320" y="705" width="80" height="50" as="geometry" />
        </mxCell>
        <mxCell id="wdwXknuP5KpK9aoqF5YQ-78" value="Event&amp;nbsp;" style="ellipse;whiteSpace=wrap;html=1;fontFamily=Times New Roman;fontSize=14;" vertex="1" parent="1">
          <mxGeometry x="320" y="790" width="80" height="50" as="geometry" />
        </mxCell>
        <mxCell id="wdwXknuP5KpK9aoqF5YQ-81" style="edgeStyle=orthogonalEdgeStyle;rounded=0;orthogonalLoop=1;jettySize=auto;html=1;entryX=0;entryY=0.6;entryDx=0;entryDy=0;entryPerimeter=0;" edge="1" parent="1" source="wdwXknuP5KpK9aoqF5YQ-71" target="wdwXknuP5KpK9aoqF5YQ-78">
          <mxGeometry relative="1" as="geometry" />
        </mxCell>
        <mxCell id="wdwXknuP5KpK9aoqF5YQ-95" style="edgeStyle=orthogonalEdgeStyle;rounded=0;orthogonalLoop=1;jettySize=auto;html=1;" edge="1" parent="1" source="wdwXknuP5KpK9aoqF5YQ-87">
          <mxGeometry relative="1" as="geometry">
            <mxPoint x="320" y="265" as="targetPoint" />
          </mxGeometry>
        </mxCell>
        <mxCell id="wdwXknuP5KpK9aoqF5YQ-98" style="edgeStyle=orthogonalEdgeStyle;rounded=0;orthogonalLoop=1;jettySize=auto;html=1;entryX=0;entryY=0.5;entryDx=0;entryDy=0;" edge="1" parent="1" source="wdwXknuP5KpK9aoqF5YQ-87" target="wdwXknuP5KpK9aoqF5YQ-97">
          <mxGeometry relative="1" as="geometry" />
        </mxCell>
        <mxCell id="wdwXknuP5KpK9aoqF5YQ-87" value="Feedback" style="ellipse;whiteSpace=wrap;html=1;fontFamily=Times New Roman;fontSize=14;" vertex="1" parent="1">
          <mxGeometry x="150" y="240" width="80" height="50" as="geometry" />
        </mxCell>
        <mxCell id="wdwXknuP5KpK9aoqF5YQ-88" style="edgeStyle=orthogonalEdgeStyle;rounded=0;orthogonalLoop=1;jettySize=auto;html=1;entryX=0;entryY=0.6;entryDx=0;entryDy=0;entryPerimeter=0;" edge="1" parent="1" source="wdwXknuP5KpK9aoqF5YQ-2" target="wdwXknuP5KpK9aoqF5YQ-87">
          <mxGeometry relative="1" as="geometry" />
        </mxCell>
        <mxCell id="wdwXknuP5KpK9aoqF5YQ-90" value="Book facilities" style="ellipse;whiteSpace=wrap;html=1;fontFamily=Times New Roman;fontSize=14;" vertex="1" parent="1">
          <mxGeometry x="320" y="465" width="80" height="50" as="geometry" />
        </mxCell>
        <mxCell id="wdwXknuP5KpK9aoqF5YQ-91" value="&lt;div style=&quot;line-height: 110%;&quot;&gt;Check classroom status&lt;/div&gt;" style="ellipse;whiteSpace=wrap;html=1;fontFamily=Times New Roman;fontSize=14;" vertex="1" parent="1">
          <mxGeometry x="320" y="390" width="80" height="50" as="geometry" />
        </mxCell>
        <mxCell id="wdwXknuP5KpK9aoqF5YQ-96" value="Asking for help" style="ellipse;whiteSpace=wrap;html=1;fontFamily=Times New Roman;fontSize=14;" vertex="1" parent="1">
          <mxGeometry x="320" y="240" width="80" height="50" as="geometry" />
        </mxCell>
        <mxCell id="wdwXknuP5KpK9aoqF5YQ-97" value="Feedback" style="ellipse;whiteSpace=wrap;html=1;fontFamily=Times New Roman;fontSize=14;" vertex="1" parent="1">
          <mxGeometry x="320" y="310" width="80" height="50" as="geometry" />
        </mxCell>
        <mxCell id="wdwXknuP5KpK9aoqF5YQ-100" value="Answer" style="ellipse;whiteSpace=wrap;html=1;fontFamily=Times New Roman;fontSize=14;" vertex="1" parent="1">
          <mxGeometry x="150" y="860" width="80" height="50" as="geometry" />
        </mxCell>
      </root>
    </mxGraphModel>
  </diagram>
</mxfile>
